REM DIRINDEX 1\2\5,1\2\6,1\2\7,1\2\8,1\3\9,1\3\10,1\3\11,1\4\12,1\4\13,1\4\14,1\4\15,1\4\16
REM DIRNAME cjc034,folder01,folder02,folder03,folder04,folder05,folder06,folder07,folder08,folder09,folder10,folder11,folder12,folder13,folder14,folder15
TITLE ""
FILE "1200_2_sec05_1682_1700.mp3" MP3
  TRACK 01 AUDIO
    TITLE "0:"
    INDEX 01 00:00:00
  TRACK 02 AUDIO
    TITLE "10:cjc034_03488"
    INDEX 01 00:00:15
  TRACK 03 AUDIO
    TITLE "0:"
    INDEX 01 00:02:55
  TRACK 04 AUDIO
    TITLE "9:cjc034_03489"
    INDEX 01 00:02:57
  TRACK 05 AUDIO
    TITLE "0:"
    INDEX 01 00:04:03
  TRACK 06 AUDIO
    TITLE "10:cjc034_03490"
    INDEX 01 00:04:58
  TRACK 07 AUDIO
    TITLE "0:"
    INDEX 01 00:07:54
  TRACK 08 AUDIO
    TITLE "9:cjc034_03491"
    INDEX 01 00:07:58
  TRACK 09 AUDIO
    TITLE "0:"
    INDEX 01 00:11:23
  TRACK 10 AUDIO
    TITLE "10:cjc034_03492"
    INDEX 01 00:12:03
  TRACK 11 AUDIO
    TITLE "0:"
    INDEX 01 00:14:23
  TRACK 12 AUDIO
    TITLE "9:cjc034_03493"
    INDEX 01 00:14:25
  TRACK 13 AUDIO
    TITLE "0:"
    INDEX 01 00:15:50
  TRACK 14 AUDIO
    TITLE "10:cjc034_03494"
    INDEX 01 00:16:36
  TRACK 15 AUDIO
    TITLE "0:"
    INDEX 01 00:18:33
  TRACK 16 AUDIO
    TITLE "9:cjc034_03495"
    INDEX 01 00:18:41
  TRACK 17 AUDIO
    TITLE "0:"
    INDEX 01 00:19:67
  TRACK 18 AUDIO
    TITLE "10:cjc034_03496"
    INDEX 01 00:20:49
  TRACK 19 AUDIO
    TITLE "0:"
    INDEX 01 00:22:05
  TRACK 20 AUDIO
    TITLE "9:cjc034_03497"
    INDEX 01 00:22:07
  TRACK 21 AUDIO
    TITLE "0:"
    INDEX 01 00:23:34
  TRACK 22 AUDIO
    TITLE "10:cjc034_03498"
    INDEX 01 00:24:16
  TRACK 23 AUDIO
    TITLE "0:"
    INDEX 01 00:25:23
  TRACK 24 AUDIO
    TITLE "9:cjc034_03499"
    INDEX 01 00:25:27
  TRACK 25 AUDIO
    TITLE "0:"
    INDEX 01 00:26:71
  TRACK 26 AUDIO
    TITLE "10:cjc034_03500"
    INDEX 01 00:27:51
  TRACK 27 AUDIO
    TITLE "0:"
    INDEX 01 00:29:48
  TRACK 28 AUDIO
    TITLE "9:cjc034_03501"
    INDEX 01 00:29:52
  TRACK 29 AUDIO
    TITLE "0:"
    INDEX 01 00:31:14
  TRACK 30 AUDIO
    TITLE "10:cjc034_03502"
    INDEX 01 00:32:00
  TRACK 31 AUDIO
    TITLE "0:"
    INDEX 01 00:33:60
  TRACK 32 AUDIO
    TITLE "9:cjc034_03503"
    INDEX 01 00:33:66
  TRACK 33 AUDIO
    TITLE "0:"
    INDEX 01 00:35:17
  TRACK 34 AUDIO
    TITLE "10:cjc034_03504"
    INDEX 01 00:35:74
  TRACK 35 AUDIO
    TITLE "0:"
    INDEX 01 00:38:51
  TRACK 36 AUDIO
    TITLE "9:cjc034_03505"
    INDEX 01 00:38:55
  TRACK 37 AUDIO
    TITLE "0:"
    INDEX 01 00:40:15
  TRACK 38 AUDIO
    TITLE "10:cjc034_03506"
    INDEX 01 00:41:00
  TRACK 39 AUDIO
    TITLE "0:"
    INDEX 01 00:42:31
  TRACK 40 AUDIO
    TITLE "9:cjc034_03507"
    INDEX 01 00:42:35
  TRACK 41 AUDIO
    TITLE "0:"
    INDEX 01 00:47:40
  TRACK 42 AUDIO
    TITLE "10:cjc034_03508"
    INDEX 01 00:48:20
  TRACK 43 AUDIO
    TITLE "0:"
    INDEX 01 00:51:18
  TRACK 44 AUDIO
    TITLE "9:cjc034_03509"
    INDEX 01 00:51:22
  TRACK 45 AUDIO
    TITLE "0:"
    INDEX 01 00:52:61
  TRACK 46 AUDIO
    TITLE "10:cjc034_03510"
    INDEX 01 00:53:41
  TRACK 47 AUDIO
    TITLE "0:"
    INDEX 01 00:55:32
  TRACK 48 AUDIO
    TITLE "9:cjc034_03511"
    INDEX 01 00:55:36
  TRACK 49 AUDIO
    TITLE "0:"
    INDEX 01 01:00:08
  TRACK 50 AUDIO
    TITLE "10:cjc034_03512"
    INDEX 01 01:00:66
  TRACK 51 AUDIO
    TITLE "0:"
    INDEX 01 01:03:57
  TRACK 52 AUDIO
    TITLE "9:cjc034_03513"
    INDEX 01 01:03:61
  TRACK 53 AUDIO
    TITLE "0:"
    INDEX 01 01:05:24
  TRACK 54 AUDIO
    TITLE "10:cjc034_03514"
    INDEX 01 01:06:04
  TRACK 55 AUDIO
    TITLE "0:"
    INDEX 01 01:07:12
  TRACK 56 AUDIO
    TITLE "9:cjc034_03515"
    INDEX 01 01:07:23
  TRACK 57 AUDIO
    TITLE "0:"
    INDEX 01 01:08:62
  TRACK 58 AUDIO
    TITLE "11:cjc034_03516"
    INDEX 01 01:10:35
  TRACK 59 AUDIO
    TITLE "0:"
    INDEX 01 01:14:06
  TRACK 60 AUDIO
    TITLE "10:cjc034_03517"
    INDEX 01 01:15:09
  TRACK 61 AUDIO
    TITLE "0:"
    INDEX 01 01:18:74
  TRACK 62 AUDIO
    TITLE "9:cjc034_03518"
    INDEX 01 01:19:07
  TRACK 63 AUDIO
    TITLE "0:"
    INDEX 01 01:21:37
  TRACK 64 AUDIO
    TITLE "10:cjc034_03519"
    INDEX 01 01:22:19
  TRACK 65 AUDIO
    TITLE "0:"
    INDEX 01 01:24:28
  TRACK 66 AUDIO
    TITLE "9:cjc034_03520"
    INDEX 01 01:24:32
  TRACK 67 AUDIO
    TITLE "0:"
    INDEX 01 01:25:45
  TRACK 68 AUDIO
    TITLE "10:cjc034_03521"
    INDEX 01 01:26:25
  TRACK 69 AUDIO
    TITLE "0:"
    INDEX 01 01:28:20
  TRACK 70 AUDIO
    TITLE "9:cjc034_03522"
    INDEX 01 01:28:24
  TRACK 71 AUDIO
    TITLE "0:"
    INDEX 01 01:31:16
  TRACK 72 AUDIO
    TITLE "10:cjc034_03523"
    INDEX 01 01:31:73
  TRACK 73 AUDIO
    TITLE "0:"
    INDEX 01 01:36:09
  TRACK 74 AUDIO
    TITLE "9:cjc034_03524"
    INDEX 01 01:36:11
  TRACK 75 AUDIO
    TITLE "0:"
    INDEX 01 01:37:50
  TRACK 76 AUDIO
    TITLE "10:cjc034_03525"
    INDEX 01 01:38:32
  TRACK 77 AUDIO
    TITLE "0:"
    INDEX 01 01:42:39
  TRACK 78 AUDIO
    TITLE "9:cjc034_03526"
    INDEX 01 01:42:41
  TRACK 79 AUDIO
    TITLE "0:"
    INDEX 01 01:46:35
